<svg width="414" height="896" viewBox="0 0 414 896" fill="none" xmlns="http://www.w3.org/2000/svg">
<g clip-path="url(#clip0_429_220)">
<rect width="414" height="896" rx="24" fill="white"/>
<path d="M450.5 -70C304.333 -70.6667 3.40004 -72.8 -31 -76C-35.6666 1.16666 -45.5 160.9 -47.5 182.5C-49.5 204.1 298.667 197.833 473 192L450.5 -70Z" fill="url(#paint0_linear_429_220)"/>
<g clip-path="url(#clip1_429_220)">
<path d="M239 170.695C239 163.894 240 158.662 241.5 155C259.1 161.696 299.333 157.79 317 155C318.2 157.093 318.833 165.289 319 169.125C296.2 175.403 256 172.613 239 170.695Z" fill="#386ED8"/>
</g>
<path d="M119.314 -32.4658C57.364 -78.7934 2.59779 -38.7064 -21.0078 -11.709L-64 238.193C123.796 238.802 501.905 239.655 511.977 238.193C524.567 236.366 624.478 -238.712 473.402 -71.2465C352.542 62.7255 300.504 53.4617 284.088 55.0684C211.102 62.2123 183.455 15.5 119.314 -32.4658Z" fill="url(#paint1_linear_429_220)"/>
<path d="M116.116 177.421C43 229.776 -12.0503 167.921 -20.8836 137.921C-31.5503 237.254 -51.7836 441.321 -47.3836 462.921C-41.8836 489.921 449.616 458.421 469.116 448.921C484.716 441.321 512.5 261.921 506 177.421C442.4 258.621 362.5 214.498 339.616 177.421C277.5 76.7763 183.278 129.33 116.116 177.421Z" fill="url(#paint2_linear_429_220)"/>
<path d="M48.133 293.026C25.204 290.007 1.86314 291.414 -17.1382 295.496C-43.5009 301.159 -57.5319 325.782 -63.2503 352.133C-82.6813 441.672 -14.6525 526.337 76.9707 526.522C260.616 526.892 467.663 527.052 475.082 526.086C487.674 524.444 580.952 196.903 418 283.5C350.035 319.619 311.03 359.659 270.758 380.423C248.339 391.983 204.559 391.221 183.151 377.883C133.586 347.002 106.031 300.65 48.133 293.026Z" fill="url(#paint3_linear_429_220)"/>
<path d="M275.119 497.812C135.222 536.451 16.2654 404.641 -22 363V896H544V548.301C492.025 504.058 479 441.5 275.119 497.812Z" fill="#0B0217"/>
<circle cx="262" cy="484" r="3" fill="#D9D9D9" fill-opacity="0.7"/>
<circle cx="10" cy="111" r="3" fill="#D9D9D9" fill-opacity="0.8"/>
<circle cx="364" cy="90" r="2" fill="#D9D9D9" fill-opacity="0.4"/>
<circle cx="217" cy="151" r="2" fill="#D9D9D9" fill-opacity="0.4"/>
<circle cx="259" cy="332" r="2" fill="#D9D9D9" fill-opacity="0.4"/>
<circle cx="85" cy="200" r="2" fill="#D9D9D9" fill-opacity="0.4"/>
<circle cx="45" cy="424" r="2" fill="#D9D9D9" fill-opacity="0.4"/>
<circle cx="398" cy="221" r="2" fill="#D9D9D9" fill-opacity="0.4"/>
<path d="M192.907 262.5C190.823 252.076 191.995 233.012 218.728 227.131C220.887 226.656 223.118 226.557 225.314 226.316C242.587 224.417 258.611 208.277 263.5 198.5" stroke="white" stroke-opacity="0.6" stroke-width="2.5"/>
<ellipse cx="163.395" cy="344" rx="95" ry="93" fill="#DB8C16"/>
<ellipse cx="163.395" cy="344" rx="95" ry="93" fill="url(#paint4_linear_429_220)"/>
<ellipse cx="178.5" cy="344.5" rx="79.5" ry="86.5" fill="#DB8C16"/>
<ellipse cx="178.5" cy="344.5" rx="79.5" ry="86.5" fill="url(#paint5_linear_429_220)"/>
<ellipse cx="178.5" cy="344.5" rx="79.5" ry="86.5" fill="url(#paint6_linear_429_220)"/>
<path d="M67.8947 346.5C-16.9053 276.1 53.0614 270.833 97.8947 276.5L88.8947 286.5C36.4947 278.9 57.5614 310.717 72.3947 326.383C90.0614 349.05 137.895 384.684 221.895 401.883C299.63 417.801 279.165 381.663 256.395 357.163L258.353 349C261.747 351.704 266.164 355.591 271.895 361C307.495 394.6 290.895 420.167 265.895 421.5C235.228 421.5 152.695 416.9 67.8947 346.5Z" fill="#30DA74"/>
<path d="M67.8947 346.5C-16.9053 276.1 53.0614 270.833 97.8947 276.5L88.8947 286.5C36.4947 278.9 57.5614 310.717 72.3947 326.383C90.0614 349.05 137.895 384.684 221.895 401.883C299.63 417.801 279.165 381.663 256.395 357.163L258.353 349C261.747 351.704 266.164 355.591 271.895 361C307.495 394.6 290.895 420.167 265.895 421.5C235.228 421.5 152.695 416.9 67.8947 346.5Z" fill="url(#paint7_linear_429_220)"/>
<circle cx="190" cy="454" r="2" fill="#D9D9D9" fill-opacity="0.4"/>
<circle cx="165" cy="29" r="2" fill="#D9D9D9" fill-opacity="0.4"/>
<circle cx="145" cy="135" r="2" fill="#D9D9D9" fill-opacity="0.4"/>
<circle cx="303" cy="342" r="2" fill="#D9D9D9" fill-opacity="0.4"/>
<circle cx="398" cy="458" r="2" fill="#D9D9D9" fill-opacity="0.4"/>
<g filter="url(#filter0_b_429_220)">
<path d="M326.706 124.231L248.908 154.058C243.863 155.992 241.647 161.905 244.179 166.678L279.675 233.607C281.834 237.677 286.717 239.46 290.991 237.738L365.042 207.891C369.849 205.953 372.031 200.367 369.809 195.685L338.058 128.776C336.043 124.528 331.096 122.547 326.706 124.231Z" fill="white" fill-opacity="0.3"/>
</g>
<path d="M273.296 219.324C267.581 195.426 274.039 179.775 284.119 172.753C290.466 167.565 305.436 157.589 314.545 159.187C315.775 159.402 315.493 158.802 317.229 160.348C331.65 151.56 345.008 147.962 335.505 119.189C333.831 114.119 335.463 99.2621 345.89 110.786C357.444 123.554 367.413 155.578 327.467 172.76C341.734 193.6 362.454 230.505 362.646 238.659C362.874 248.366 351.525 250.691 346.391 245.906L324.4 226.945L327.635 254.269C326.049 262.898 318.082 261.829 314.297 260.216C303.307 257.491 294.395 227.5 288.89 200.652C286.264 207.777 288.733 219.362 291.079 226.41C291.38 227.313 291.493 228.265 291.282 229.17C291.024 230.273 290.69 231.213 290.295 232.009C286.149 240.36 275.504 228.558 273.296 219.324Z" fill="#DADADA"/>
<path d="M273.296 219.324C267.581 195.426 274.039 179.775 284.119 172.753C290.466 167.565 305.436 157.589 314.545 159.187C315.775 159.402 315.493 158.802 317.229 160.348C331.65 151.56 345.008 147.962 335.505 119.189C333.831 114.119 335.463 99.2621 345.89 110.786C357.444 123.554 367.413 155.578 327.467 172.76C341.734 193.6 362.454 230.505 362.646 238.659C362.874 248.366 351.525 250.691 346.391 245.906L324.4 226.945L327.635 254.269C326.049 262.898 318.082 261.829 314.297 260.216C303.307 257.491 294.395 227.5 288.89 200.652C286.264 207.777 288.733 219.362 291.079 226.41C291.38 227.313 291.493 228.265 291.282 229.17C291.024 230.273 290.69 231.213 290.295 232.009C286.149 240.36 275.504 228.558 273.296 219.324Z" fill="url(#paint8_linear_429_220)"/>
<path d="M273.296 219.324C267.581 195.426 274.039 179.775 284.119 172.753C290.466 167.565 305.436 157.589 314.545 159.187C315.775 159.402 315.493 158.802 317.229 160.348C331.65 151.56 345.008 147.962 335.505 119.189C333.831 114.119 335.463 99.2621 345.89 110.786C357.444 123.554 367.413 155.578 327.467 172.76C341.734 193.6 362.454 230.505 362.646 238.659C362.874 248.366 351.525 250.691 346.391 245.906L324.4 226.945L327.635 254.269C326.049 262.898 318.082 261.829 314.297 260.216C303.307 257.491 294.395 227.5 288.89 200.652C286.264 207.777 288.733 219.362 291.079 226.41C291.38 227.313 291.493 228.265 291.282 229.17C291.024 230.273 290.69 231.213 290.295 232.009C286.149 240.36 275.504 228.558 273.296 219.324Z" fill="url(#paint9_linear_429_220)"/>
<path d="M273.296 219.324C267.581 195.426 274.039 179.775 284.119 172.753C290.466 167.565 305.436 157.589 314.545 159.187C315.775 159.402 315.493 158.802 317.229 160.348C331.65 151.56 345.008 147.962 335.505 119.189C333.831 114.119 335.463 99.2621 345.89 110.786C357.444 123.554 367.413 155.578 327.467 172.76C341.734 193.6 362.454 230.505 362.646 238.659C362.874 248.366 351.525 250.691 346.391 245.906L324.4 226.945L327.635 254.269C326.049 262.898 318.082 261.829 314.297 260.216C303.307 257.491 294.395 227.5 288.89 200.652C286.264 207.777 288.733 219.362 291.079 226.41C291.38 227.313 291.493 228.265 291.282 229.17C291.024 230.273 290.69 231.213 290.295 232.009C286.149 240.36 275.504 228.558 273.296 219.324Z" fill="url(#paint10_linear_429_220)" fill-opacity="0.5"/>
<path d="M317.791 158.968L284.4 172.107L278.835 177.193C305.27 182.703 324.747 165.043 325.211 155.578L317.791 158.968Z" fill="#232323" stroke="#232323"/>
<ellipse cx="36.5082" cy="33.2481" rx="36.5082" ry="33.2481" transform="matrix(0.913327 -0.407226 0.470932 0.88217 240.03 124.704)" fill="#D9D9D9"/>
<ellipse cx="36.5082" cy="33.2481" rx="36.5082" ry="33.2481" transform="matrix(0.913327 -0.407226 0.470932 0.88217 240.03 124.704)" fill="url(#paint11_linear_429_220)"/>
<ellipse cx="36.5082" cy="33.2481" rx="36.5082" ry="33.2481" transform="matrix(0.913327 -0.407226 0.470932 0.88217 240.03 124.704)" fill="url(#paint12_linear_429_220)"/>
<path d="M320.43 184.112L300.941 190.674C298.76 191.408 297.647 193.826 298.507 195.96L301.996 204.615C302.791 206.587 304.991 207.592 307.003 206.903L328.22 199.632C330.69 198.785 331.7 195.836 330.266 193.652L325.05 185.707C324.052 184.187 322.154 183.531 320.43 184.112Z" fill="#261B1B"/>
<path d="M320.43 184.112L300.941 190.674C298.76 191.408 297.647 193.826 298.507 195.96L301.996 204.615C302.791 206.587 304.991 207.592 307.003 206.903L328.22 199.632C330.69 198.785 331.7 195.836 330.266 193.652L325.05 185.707C324.052 184.187 322.154 183.531 320.43 184.112Z" fill="black" fill-opacity="0.2"/>
<path d="M304.342 195.458L319.378 189.908" stroke="white" stroke-linecap="round"/>
<path d="M307.124 200.543L322.161 194.994" stroke="white" stroke-linecap="round"/>
<ellipse cx="321.965" cy="189.06" rx="0.927516" ry="0.847662" fill="#BA0909"/>
<ellipse cx="324.747" cy="194.146" rx="0.927516" ry="0.847662" fill="#38BFAF"/>
<path d="M278.835 200.928H270.951L271.415 195.842L272.343 190.756H280.227L278.835 200.928Z" fill="url(#paint13_angular_429_220)"/>
<path d="M338.66 141.591C338.196 142.015 338.66 133.539 338.66 131.843L343.449 132.267H347.008C347.008 142.55 345.995 142.55 345.509 143.284C345.473 143.339 340.515 142.015 338.66 141.591Z" fill="url(#paint14_angular_429_220)"/>
<path d="M331.58 80.2813C333.394 78.608 336.318 79.5078 336.654 81.843L336.915 83.6531C337.05 84.5904 337.648 85.3872 338.521 85.7924L339.987 86.473C342.277 87.5368 342.128 90.7593 339.74 91.8168L338.582 92.3294C337.611 92.7591 336.916 93.6328 336.742 94.6417L336.51 95.9902C336.096 98.3965 333.042 99.4371 331.305 97.764L329.879 96.3907C329.223 95.7584 328.286 95.4702 327.345 95.6107L325.301 95.9158C322.81 96.2876 321.068 93.7709 322.331 91.6258L323.038 90.4236C323.568 89.5242 323.593 88.4443 323.104 87.5655L322.522 86.517C321.319 84.3543 323.334 81.7061 325.862 82.1256L327.48 82.394C328.443 82.5538 329.446 82.25 330.175 81.5783L331.58 80.2813Z" fill="#DCCB31"/>
<g filter="url(#filter1_f_429_220)">
<path d="M332.218 77.9073C334.021 76.3166 336.845 77.1857 337.228 79.4494L337.864 83.2088C338.019 84.1255 338.618 84.8976 339.479 85.2895L342.755 86.7818C345.099 87.8494 344.912 91.1546 342.45 92.1681L339.8 93.2587C338.78 93.6785 338.047 94.5846 337.877 95.6342L337.411 98.5186C337.024 100.912 334.012 101.99 332.248 100.366L329.135 97.5007C328.496 96.9133 327.61 96.6404 326.713 96.7552L322.337 97.3154C319.858 97.633 318.172 95.1095 319.449 92.9898L320.987 90.4354C321.547 89.5059 321.563 88.379 321.029 87.4809L319.641 85.1476C318.351 82.9793 320.39 80.2438 322.963 80.6898L326.56 81.3131C327.504 81.4768 328.493 81.1933 329.223 80.5491L332.218 77.9073Z" fill="#FFCF35"/>
</g>
<path d="M253.792 150.492C262.604 139.472 294.232 117.772 322.429 124.214C343.298 159.816 276.516 199.232 253.792 150.492Z" fill="#0A0E37"/>
<path d="M253.792 150.492C262.604 139.472 294.232 117.772 322.429 124.214C343.298 159.816 276.516 199.232 253.792 150.492Z" fill="url(#paint15_linear_429_220)"/>
</g>
<defs>
<filter id="filter0_b_429_220" x="233.127" y="113.632" width="147.554" height="134.76" filterUnits="userSpaceOnUse" color-interpolation-filters="sRGB">
<feFlood flood-opacity="0" result="BackgroundImageFix"/>
<feGaussianBlur in="BackgroundImageFix" stdDeviation="5"/>
<feComposite in2="SourceAlpha" operator="in" result="effect1_backgroundBlur_429_220"/>
<feBlend mode="normal" in="SourceGraphic" in2="effect1_backgroundBlur_429_220" result="shape"/>
</filter>
<filter id="filter1_f_429_220" x="315.012" y="73.0955" width="33.3979" height="32.0454" filterUnits="userSpaceOnUse" color-interpolation-filters="sRGB">
<feFlood flood-opacity="0" result="BackgroundImageFix"/>
<feBlend mode="normal" in="SourceGraphic" in2="BackgroundImageFix" result="shape"/>
<feGaussianBlur stdDeviation="2" result="effect1_foregroundBlur_429_220"/>
</filter>
<linearGradient id="paint0_linear_429_220" x1="212.746" y1="-76" x2="212.746" y2="197.574" gradientUnits="userSpaceOnUse">
<stop stop-color="#1A0937"/>
<stop offset="1" stop-color="#85185A"/>
</linearGradient>
<linearGradient id="paint1_linear_429_220" x1="249.943" y1="297.471" x2="249.943" y2="12.4268" gradientUnits="userSpaceOnUse">
<stop stop-color="#AB1D61"/>
<stop offset="0.578729" stop-color="#491045"/>
<stop offset="0.722679" stop-color="#370D40"/>
<stop offset="1" stop-color="#1A0937"/>
</linearGradient>
<linearGradient id="paint2_linear_429_220" x1="229.116" y1="90.4209" x2="232.116" y2="413.421" gradientUnits="userSpaceOnUse">
<stop stop-color="#1A0937"/>
<stop offset="0.172326" stop-color="#250B3A"/>
<stop offset="0.44522" stop-color="#3A0E41"/>
<stop offset="0.683605" stop-color="#501147"/>
<stop offset="1" stop-color="#7C1754"/>
</linearGradient>
<linearGradient id="paint3_linear_429_220" x1="213" y1="579.332" x2="213" y2="323.288" gradientUnits="userSpaceOnUse">
<stop stop-color="#932E4D"/>
<stop offset="0.232841" stop-color="#953D6C"/>
<stop offset="0.595484" stop-color="#5B0C55"/>
<stop offset="1" stop-color="#1A0937"/>
</linearGradient>
<linearGradient id="paint4_linear_429_220" x1="163" y1="229" x2="163.395" y2="437" gradientUnits="userSpaceOnUse">
<stop stop-color="#EF7A20"/>
<stop offset="0.38388" stop-color="#EB7E1E" stop-opacity="0.793049"/>
<stop offset="1" stop-color="#FFCF35"/>
</linearGradient>
<linearGradient id="paint5_linear_429_220" x1="178.5" y1="258" x2="178.5" y2="431" gradientUnits="userSpaceOnUse">
<stop stop-color="#DB8C16"/>
<stop offset="1" stop-color="#DB8C16" stop-opacity="0"/>
</linearGradient>
<linearGradient id="paint6_linear_429_220" x1="193.34" y1="405.708" x2="179.811" y2="253.836" gradientUnits="userSpaceOnUse">
<stop stop-color="#EF7A20"/>
<stop offset="0.420003" stop-color="#F49326"/>
<stop offset="1" stop-color="#FFCF35"/>
</linearGradient>
<linearGradient id="paint7_linear_429_220" x1="102" y1="439" x2="160.189" y2="421.5" gradientUnits="userSpaceOnUse">
<stop stop-color="#4FC0EC"/>
<stop offset="1" stop-color="#0BAA8E"/>
</linearGradient>
<linearGradient id="paint8_linear_429_220" x1="304.806" y1="61.9112" x2="339.782" y2="133.615" gradientUnits="userSpaceOnUse">
<stop stop-color="#FFDA55"/>
<stop offset="0.710464" stop-color="#F2DA85" stop-opacity="0.638261"/>
<stop offset="1" stop-color="#DADADA" stop-opacity="0"/>
</linearGradient>
<linearGradient id="paint9_linear_429_220" x1="168.461" y1="258.569" x2="288.003" y2="224.49" gradientUnits="userSpaceOnUse">
<stop stop-color="#737373"/>
<stop offset="0.480034" stop-color="#8A8A8A" stop-opacity="0.773997"/>
<stop offset="0.926697" stop-color="#C5C5C5" stop-opacity="0.206078"/>
<stop offset="1" stop-color="#DADADA" stop-opacity="0"/>
</linearGradient>
<linearGradient id="paint10_linear_429_220" x1="345.153" y1="276.794" x2="322.31" y2="201.811" gradientUnits="userSpaceOnUse">
<stop stop-color="#949494"/>
<stop offset="0.536579" stop-color="#9D9D9D" stop-opacity="0.866152"/>
<stop offset="0.892352" stop-color="#CACACA" stop-opacity="0.228983"/>
<stop offset="0.914045" stop-color="#DADADA" stop-opacity="0"/>
</linearGradient>
<linearGradient id="paint11_linear_429_220" x1="63.1111" y1="14.1647" x2="-181.687" y2="40.1712" gradientUnits="userSpaceOnUse">
<stop stop-color="#D9D9D9"/>
<stop offset="0.676345" stop-color="#434343" stop-opacity="0.237665"/>
<stop offset="1" stop-color="#565656" stop-opacity="0"/>
</linearGradient>
<linearGradient id="paint12_linear_429_220" x1="98.115" y1="4.37932" x2="40.1161" y2="69.6998" gradientUnits="userSpaceOnUse">
<stop stop-color="#F5DB4F"/>
<stop offset="1" stop-color="#D9D9D9" stop-opacity="0"/>
</linearGradient>
<radialGradient id="paint13_angular_429_220" cx="0" cy="0" r="1" gradientUnits="userSpaceOnUse" gradientTransform="translate(275.589 195.842) rotate(57.4505) scale(6.03371 5.23933)">
<stop stop-color="#464646"/>
<stop offset="1" stop-color="#464646" stop-opacity="0"/>
</radialGradient>
<radialGradient id="paint14_angular_429_220" cx="0" cy="0" r="1" gradientUnits="userSpaceOnUse" gradientTransform="translate(342.731 137.565) rotate(56.9368) scale(7.83925 5.57277)">
<stop stop-color="#343434"/>
<stop offset="1" stop-color="#343434" stop-opacity="0"/>
</radialGradient>
<linearGradient id="paint15_linear_429_220" x1="263.512" y1="141.789" x2="345.704" y2="190.809" gradientUnits="userSpaceOnUse">
<stop stop-color="#7B1754"/>
<stop offset="0.422878" stop-color="#4D2D5D" stop-opacity="0.511769"/>
<stop offset="1" stop-color="#31DAB3" stop-opacity="0.52"/>
</linearGradient>
<clipPath id="clip0_429_220">
<rect width="414" height="896" rx="24" fill="white"/>
</clipPath>
<clipPath id="clip1_429_220">
<rect width="80" height="18" fill="white" transform="translate(239 155)"/>
</clipPath>
</defs>
</svg>
